<svg overflow="visible" width="100%" height="100%" viewBox="0 0 20 20" fill="none" xmlns="http://www.w3.org/2000/svg"> <path stroke-linejoin="miter" fill="var(--token-12747475-ec65-4b4b-8320-148017785368, rgb(87, 80, 76))" d="M9.59961 0.599609C14.5702 0.599609 18.5996 4.62905 18.5996 9.59961C18.5996 14.5702 14.5702 18.5996 9.59961 18.5996C4.62905 18.5996 0.599609 14.5702 0.599609 9.59961C0.599609 4.62905 4.62905 0.599609 9.59961 0.599609ZM11.1992 3.59961C10.2711 3.59971 9.38089 3.96871 8.72461 4.625C8.06835 5.28136 7.69922 6.17144 7.69922 7.09961V9.19922H5.59961V12H7.69922V17.5996H10.5V12H12.5996L13.2998 9.19922H10.5V7.09961C10.5 6.91396 10.5738 6.73577 10.7051 6.60449C10.8362 6.47349 11.0138 6.39952 11.1992 6.39941H13.2998V3.59961H11.1992Z"></path> </svg>