<svg overflow="visible" width="100%" height="100%" viewBox="0 0 28 28" fill="none" xmlns="http://www.w3.org/2000/svg"> <path stroke-linejoin="miter" fill="var(--token-4d729ee2-0aba-46c0-a0fd-e8e407f97d86, rgb(35, 27, 24))" d="M24.6764 24.6734C22.788 26.5615 20.2799 27.6014 17.6081 27.6014C16.9403 27.6014 16.2821 27.5361 15.6415 27.4101C15.4844 27.3778 15.3229 27.3416 15.165 27.3039C15.0079 27.2646 14.8527 27.2199 14.694 27.1721C14.3847 27.0799 14.0778 26.9698 13.7799 26.845C12.583 26.3507 11.4834 25.6177 10.5386 24.6734C9.37758 23.5126 8.51951 22.0831 8.04303 20.5217C8.81437 20.7006 9.60356 20.7908 10.3963 20.7908H10.399C13.1758 20.7908 15.785 19.7085 17.7509 17.7466C20.283 15.2118 21.3309 11.522 20.5273 8.043C22.0874 8.51668 23.5173 9.37494 24.6764 10.5366C28.5758 14.4344 28.5758 20.7748 24.6764 24.6734ZM7.48058 19.9566C5.91888 19.4829 4.48907 18.6247 3.32723 17.4631C1.43955 15.5758 0.399468 13.0643 0.399468 10.3962C0.399468 7.72488 1.43955 5.21462 3.32723 3.32618C5.21564 1.43812 7.72721 0.398224 10.3963 0.398224C13.0685 0.398224 15.5789 1.43812 17.4673 3.32618C18.6295 4.48738 19.4872 5.91694 19.9606 7.47794C19.192 7.29906 18.4 7.20924 17.6081 7.20924C14.832 7.20924 12.2197 8.29112 10.2559 10.2534C7.72177 12.7882 6.67584 16.478 7.48058 19.9566ZM24.9599 10.2534C23.6958 8.99032 22.124 8.07062 20.411 7.59382C19.9314 5.88156 19.0134 4.30888 17.7509 3.04618C15.785 1.08072 13.1758 0 10.3963 0C7.61985 0 5.01066 1.08072 3.04484 3.04618C1.08094 5.00888 0 7.61756 0 10.3962C0 13.1721 1.08094 15.7838 3.04484 17.7466C4.31054 19.0124 5.88388 19.9294 7.5965 20.4058C8.07298 22.1184 8.99017 23.6911 10.2559 24.9538C12.2197 26.9189 14.832 28 17.6081 28C18.9986 28 20.3456 27.7293 21.5903 27.2137C22.8354 26.6996 23.9794 25.9369 24.9599 24.9538C29.0134 20.9039 29.0134 14.3064 24.9599 10.2534Z"></path> </svg>