<svg overflow="visible" width="100%" height="100%" viewBox="0 0 28 28" fill="none" xmlns="http://www.w3.org/2000/svg"> <path stroke-linejoin="miter" fill="var(--token-4d729ee2-0aba-46c0-a0fd-e8e407f97d86, rgb(35, 27, 24))" d="M0 7.5122C0 6.00634 1.22585 4.78049 2.73171 4.78049C4.23756 4.78049 5.46341 6.00634 5.46341 7.5122C5.46341 9.01805 4.23756 10.2439 2.73171 10.2439C1.22585 10.2439 0 9.01805 0 7.5122ZM8.87805 19.8049H6.14634C5.77073 19.8049 5.46341 19.4976 5.46341 19.122V14.4576C5.46341 12.9585 4.34341 11.7088 2.9161 11.6166C2.15463 11.5688 1.42049 11.8249 0.863902 12.3473C0.307317 12.8698 0 13.5766 0 14.3415V22.5366H6.14634C6.52195 22.5366 6.82927 22.8439 6.82927 23.2195V28H9.56098V20.4878C9.56098 20.1122 9.25366 19.8049 8.87805 19.8049ZM25.2683 10.2439C26.7741 10.2439 28 9.01805 28 7.5122C28 6.00634 26.7741 4.78049 25.2683 4.78049C23.7624 4.78049 22.5366 6.00634 22.5366 7.5122C22.5366 9.01805 23.7624 10.2439 25.2683 10.2439ZM25.0839 11.6166C23.6566 11.7088 22.5366 12.9585 22.5366 14.4576V19.122C22.5366 19.4976 22.2293 19.8049 21.8537 19.8049H19.122C18.7463 19.8049 18.439 20.1122 18.439 20.4878V28H21.1707V23.2195C21.1707 22.8439 21.478 22.5366 21.8537 22.5366H28V14.3415C28 13.5766 27.6927 12.8698 27.1361 12.3473C26.5795 11.8249 25.8488 11.5688 25.0839 11.6166ZM17.4146 0H10.5854C10.2098 0 9.90244 0.307317 9.90244 0.682927V4.78049C9.90244 5.1561 10.2098 5.46341 10.5854 5.46341H12.2927C12.5283 5.46341 12.7468 5.58634 12.8732 5.78439L14 7.59073L15.1268 5.78439C15.2532 5.58634 15.4717 5.46341 15.7073 5.46341H17.4146C17.7902 5.46341 18.0976 5.1561 18.0976 4.78049V0.682927C18.0976 0.307317 17.7902 0 17.4146 0Z"></path> </svg>