<svg overflow="visible" width="100%" height="100%" viewBox="0 0 20 20" fill="none" xmlns="http://www.w3.org/2000/svg"> <path stroke-linejoin="miter" fill="var(--token-12747475-ec65-4b4b-8320-148017785368, rgb(87, 80, 76))" d="M13.002 6.69141C14.172 6.69141 15.2947 7.15603 16.1221 7.9834C16.9494 8.81076 17.4141 9.93346 17.4141 11.1035V16.25H14.4727V11.1035C14.4727 10.7135 14.3178 10.3393 14.042 10.0635C13.7662 9.78769 13.392 9.63281 13.002 9.63281C12.612 9.63287 12.2377 9.78774 11.9619 10.0635C11.6863 10.3392 11.5312 10.7136 11.5312 11.1035V16.25H8.59082V11.1035C8.59082 9.93344 9.05544 8.81077 9.88281 7.9834C10.7101 7.15621 11.8321 6.69147 13.002 6.69141ZM5.64941 16.249H2.70801V7.42578H5.64941V16.249ZM4.17871 3.75C4.99085 3.75006 5.64941 4.40855 5.64941 5.2207C5.64936 6.03281 4.99081 6.69135 4.17871 6.69141C3.36656 6.69141 2.70807 6.03284 2.70801 5.2207C2.70801 4.40852 3.36652 3.75 4.17871 3.75Z"></path> </svg>