<svg viewBox="0 0 17 17" overflow="visible" id="svg1428858776_791" xmlns="http://www.w3.org/2000/svg"><path d="M 16.854 8.146 C 17.049 8.342 17.049 8.658 16.854 8.853 C 16.658 9.049 16.342 9.049 16.146 8.853 L 8.5 1.207 L 0.854 8.853 C 0.658 9.049 0.342 9.049 0.146 8.853 C -0.049 8.658 -0.049 8.342 0.146 8.146 L 8.146 0.146 C 8.342 -0.049 8.658 -0.049 8.854 0.146 Z M 16.854 16.146 C 17.049 16.342 17.049 16.658 16.854 16.853 C 16.658 17.049 16.342 17.049 16.146 16.853 L 8.5 9.207 L 0.854 16.853 C 0.658 17.049 0.342 17.049 0.146 16.853 C -0.049 16.658 -0.049 16.342 0.146 16.146 L 8.146 8.146 C 8.342 7.951 8.658 7.951 8.854 8.146 Z" fill="var(--token-b7177e78-718c-477e-afa5-f5fde93e7b19, rgb(255, 255, 255)) /* {&quot;name&quot;:&quot;White&quot;} */"></path></svg>