<svg xmlns="http://www.w3.org/2000/svg" width="60" height="60" fill="none"><circle cx="30" cy="30" r="30" fill="#241C18" transform="matrix(-1 0 0 1 60 0)"/><g clip-path="url(#a)"><path fill="#241C18" d="M38.75 25H20v10h18.75z"/><path fill="#fff" d="M27.991 25.133a.695.695 0 0 0-.873-.088l-.11.088-4.374 4.375a.69.69 0 0 0-.164.274.687.687 0 0 0-.04.218c0 .124.037.24.094.341.03.054.065.105.11.15l4.375 4.375a.695.695 0 0 0 .982-.983l-2.004-2.004a.694.694 0 0 1 .491-1.185H37.5a.694.694 0 0 0 0-1.389H26.478a.694.694 0 0 1-.49-1.185l2.003-2.004.09-.11a.695.695 0 0 0-.09-.873Z"/></g><defs><clipPath id="a"><path fill="#fff" d="M38.75 25H20v10h18.75z"/></clipPath></defs></svg>