<svg xmlns="http://www.w3.org/2000/svg" width="31" height="30" fill="none"><path fill="#241C18" fill-rule="evenodd" d="M10.352 7.858V.714h1.428v7.144h-1.428Zm-3.572 3.57H1.065V10H6.78v1.428Zm10 7.144H1.066v-1.43h15.716v1.43Z" clip-rule="evenodd"/><path fill="#241C18" fill-rule="evenodd" d="M11.78 29.286v-11.43h1.429v11.43h-1.43Z" clip-rule="evenodd"/><path fill="#241C18" fill-rule="evenodd" d="M.352.714C.352.32.672 0 1.065 0h28.573c.393 0 .714.32.714.714v28.572c0 .394-.32.714-.714.714H1.065a.714.714 0 0 1-.713-.714V.714Zm1.429.715v27.142h27.142V1.429H1.78Z" clip-rule="evenodd"/><path fill="#241C18" fill-rule="evenodd" d="M18.923 5c0-.394.32-.714.714-.714h5.715c.394 0 .714.32.714.714v5.714c0 .395-.32.714-.714.714h-5.715a.713.713 0 0 1-.714-.714V5Zm1.428.715V10h4.286V5.715H20.35Zm4.286 13.571v10h-1.428v-10h1.428Z" clip-rule="evenodd"/></svg>