<svg xmlns="http://www.w3.org/2000/svg" width="60" height="60" fill="none"><circle cx="30" cy="30" r="30" fill="#241C18" transform="matrix(1 0 0 -1 0 60)"/><g clip-path="url(#a)"><path fill="#241C18" d="M21.25 35H40V25H21.25z"/><path fill="#fff" d="M32.009 34.867a.695.695 0 0 0 .873.089l.11-.09 4.374-4.374a.69.69 0 0 0 .164-.274.687.687 0 0 0 .04-.218.689.689 0 0 0-.094-.341.684.684 0 0 0-.11-.15l-4.375-4.375a.695.695 0 0 0-.982.983l2.004 2.004a.694.694 0 0 1-.491 1.185H22.5a.694.694 0 0 0 0 1.389h11.022c.618 0 .928.748.49 1.185l-2.003 2.004-.09.11a.695.695 0 0 0 .09.873Z"/></g><defs><clipPath id="a"><path fill="#fff" d="M21.25 35H40V25H21.25z"/></clipPath></defs></svg>