<svg xmlns="http://www.w3.org/2000/svg" width="37" height="42" fill="none"><mask id="a" width="37" height="42" x="0" y="0" fill="#000" maskUnits="userSpaceOnUse"><path fill="#fff" d="M0 0h37v42H0z"/><path d="M35.703 29.056v1.777a.33.33 0 0 1-.167.289l-1.539.89a.333.333 0 0 1-.333-.577l1.372-.794v-1.585a.333.333 0 0 1 .667 0Zm-.333-7.09a.333.333 0 0 0-.334.334v4.157a.333.333 0 0 0 .667 0V22.3a.333.333 0 0 0-.333-.334Zm0-6.756a.333.333 0 0 0-.334.333v4.158a.333.333 0 0 0 .667 0v-4.158a.333.333 0 0 0-.333-.333Zm.329-4.06a.325.325 0 0 0-.04-.149L35.658 11a.327.327 0 0 0-.11-.11c-.005-.003-.007-.009-.012-.012l-1.539-.89a.333.333 0 1 0-.333.578l1.04.6-1.04.601a.333.333 0 0 0 .333.578l1.04-.6v1.2a.333.333 0 0 0 .666 0v-1.778c0-.006-.004-.01-.004-.016ZM21.973 3.81l3.597 2.08a.331.331 0 0 0 .455-.122.333.333 0 0 0-.122-.456l-3.597-2.079a.333.333 0 1 0-.334.578Zm5.845 3.379 3.597 2.078a.333.333 0 1 0 .333-.577l-3.597-2.08a.333.333 0 1 0-.333.578ZM16.813 2.556a.33.33 0 0 0 .166-.045l1.373-.792 1.372.792a.333.333 0 1 0 .334-.577l-1.54-.89a.332.332 0 0 0-.333 0l-1.54.89a.334.334 0 0 0 .168.622ZM5.12 9.311a.331.331 0 0 0 .166-.044l3.598-2.079a.333.333 0 0 0-.333-.577L4.954 8.689a.333.333 0 0 0 .167.622Zm5.846-3.377a.33.33 0 0 0 .166-.045l3.597-2.078a.333.333 0 0 0-.333-.578L10.8 5.312a.333.333 0 0 0 .167.622ZM3.161 10.11a.333.333 0 0 0-.455-.122l-1.54.89c-.004.002-.006.008-.01.01a.326.326 0 0 0-.11.11L1.044 11a.326.326 0 0 0-.04.15c0 .005-.004.01-.004.016v1.778a.333.333 0 0 0 .667 0v-1.2l1.039.6a.333.333 0 1 0 .333-.577l-1.04-.601 1.04-.6a.333.333 0 0 0 .122-.456ZM1.333 26.79c.184 0 .334-.15.334-.334V22.3a.333.333 0 0 0-.667 0v4.158c0 .184.15.333.333.333Zm0-6.757c.184 0 .334-.15.334-.333v-4.158a.333.333 0 0 0-.667 0V19.7c0 .184.15.333.333.333Zm1.706 11.4-1.372-.793v-1.585a.333.333 0 0 0-.667 0v1.777c0 .12.063.23.167.289l1.539.89a.333.333 0 1 0 .333-.577ZM14.73 38.19l-3.597-2.08a.333.333 0 1 0-.333.578l3.597 2.079a.333.333 0 0 0 .333-.577Zm-5.845-3.378-3.597-2.079a.333.333 0 1 0-.334.577l3.598 2.079a.333.333 0 1 0 .333-.577Zm10.84 4.677-1.04.6v-1.2a.333.333 0 0 0-.667 0v1.2l-1.039-.6a.333.333 0 1 0-.333.577l1.539.89c.005.002.01.001.016.003a.32.32 0 0 0 .15.041.324.324 0 0 0 .151-.04c.005-.003.011-.002.016-.005l1.54-.889a.333.333 0 0 0-.334-.577Zm5.845-3.378-3.598 2.079a.334.334 0 0 0 .334.577l3.597-2.079a.333.333 0 0 0-.333-.577Zm5.846-3.377-3.598 2.078a.333.333 0 0 0 .333.577l3.598-2.078a.333.333 0 0 0-.333-.577ZM14.73 18.524l-3.597-2.08a.333.333 0 1 0-.333.577l3.597 2.08a.333.333 0 0 0 .333-.577Zm4.994 1.298-1.372.793-1.373-.793a.333.333 0 1 0-.333.577l1.372.793v1.697a.333.333 0 0 0 .667 0v-1.697l1.373-.793a.333.333 0 0 0-.334-.577Zm5.846-3.377-3.598 2.078a.334.334 0 0 0 .334.577l3.597-2.078a.333.333 0 0 0-.333-.577Zm6.3-3.256a.333.333 0 0 1-.121.455l-1.983 1.146v12.613a.333.333 0 0 1-.167.289l-11.08 6.403a.331.331 0 0 1-.334 0L7.104 27.692a.333.333 0 0 1-.167-.29V14.79l-1.983-1.145a.333.333 0 0 1 .334-.577l1.983 1.145 10.747-6.21V6.416a.333.333 0 0 1 .667 0v1.586l10.748 6.21 1.983-1.145a.333.333 0 0 1 .455.122Zm-2.77 1.986-.949.548a.333.333 0 1 1-.333-.577l.949-.549L18.352 8.58 7.937 14.597l.948.548a.333.333 0 0 1-.333.577l-.948-.547V27.21l10.414 6.017v-1.45a.333.333 0 0 1 .667 0v1.45l10.414-6.017V15.175ZM18.017 2.861v1.778a.333.333 0 0 0 .667 0V2.86a.333.333 0 0 0-.667 0Zm.334 34.583a.334.334 0 0 0 .333-.333v-1.778a.333.333 0 0 0-.667 0v1.778c0 .184.15.334.334.334Zm0-13.11a.333.333 0 0 0-.334.333v1.777a.333.333 0 0 0 .667 0v-1.777a.333.333 0 0 0-.333-.334Zm0 3.555a.333.333 0 0 0-.334.333V30a.333.333 0 0 0 .667 0v-1.778a.333.333 0 0 0-.333-.333Z"/></mask><path fill="#241C18" d="M35.703 29.056v1.777a.33.33 0 0 1-.167.289l-1.539.89a.333.333 0 0 1-.333-.577l1.372-.794v-1.585a.333.333 0 0 1 .667 0Zm-.333-7.09a.333.333 0 0 0-.334.334v4.157a.333.333 0 0 0 .667 0V22.3a.333.333 0 0 0-.333-.334Zm0-6.756a.333.333 0 0 0-.334.333v4.158a.333.333 0 0 0 .667 0v-4.158a.333.333 0 0 0-.333-.333Zm.329-4.06a.325.325 0 0 0-.04-.149L35.658 11a.327.327 0 0 0-.11-.11c-.005-.003-.007-.009-.012-.012l-1.539-.89a.333.333 0 1 0-.333.578l1.04.6-1.04.601a.333.333 0 0 0 .333.578l1.04-.6v1.2a.333.333 0 0 0 .666 0v-1.778c0-.006-.004-.01-.004-.016ZM21.973 3.81l3.597 2.08a.331.331 0 0 0 .455-.122.333.333 0 0 0-.122-.456l-3.597-2.079a.333.333 0 1 0-.334.578Zm5.845 3.379 3.597 2.078a.333.333 0 1 0 .333-.577l-3.597-2.08a.333.333 0 1 0-.333.578ZM16.813 2.556a.33.33 0 0 0 .166-.045l1.373-.792 1.372.792a.333.333 0 1 0 .334-.577l-1.54-.89a.332.332 0 0 0-.333 0l-1.54.89a.334.334 0 0 0 .168.622ZM5.12 9.311a.331.331 0 0 0 .166-.044l3.598-2.079a.333.333 0 0 0-.333-.577L4.954 8.689a.333.333 0 0 0 .167.622Zm5.846-3.377a.33.33 0 0 0 .166-.045l3.597-2.078a.333.333 0 0 0-.333-.578L10.8 5.312a.333.333 0 0 0 .167.622ZM3.161 10.11a.333.333 0 0 0-.455-.122l-1.54.89c-.004.002-.006.008-.01.01a.326.326 0 0 0-.11.11L1.044 11a.326.326 0 0 0-.04.15c0 .005-.004.01-.004.016v1.778a.333.333 0 0 0 .667 0v-1.2l1.039.6a.333.333 0 1 0 .333-.577l-1.04-.601 1.04-.6a.333.333 0 0 0 .122-.456ZM1.333 26.79c.184 0 .334-.15.334-.334V22.3a.333.333 0 0 0-.667 0v4.158c0 .184.15.333.333.333Zm0-6.757c.184 0 .334-.15.334-.333v-4.158a.333.333 0 0 0-.667 0V19.7c0 .184.15.333.333.333Zm1.706 11.4-1.372-.793v-1.585a.333.333 0 0 0-.667 0v1.777c0 .12.063.23.167.289l1.539.89a.333.333 0 1 0 .333-.577ZM14.73 38.19l-3.597-2.08a.333.333 0 1 0-.333.578l3.597 2.079a.333.333 0 0 0 .333-.577Zm-5.845-3.378-3.597-2.079a.333.333 0 1 0-.334.577l3.598 2.079a.333.333 0 1 0 .333-.577Zm10.84 4.677-1.04.6v-1.2a.333.333 0 0 0-.667 0v1.2l-1.039-.6a.333.333 0 1 0-.333.577l1.539.89c.005.002.01.001.016.003a.32.32 0 0 0 .15.041.324.324 0 0 0 .151-.04c.005-.003.011-.002.016-.005l1.54-.889a.333.333 0 0 0-.334-.577Zm5.845-3.378-3.598 2.079a.334.334 0 0 0 .334.577l3.597-2.079a.333.333 0 0 0-.333-.577Zm5.846-3.377-3.598 2.078a.333.333 0 0 0 .333.577l3.598-2.078a.333.333 0 0 0-.333-.577ZM14.73 18.524l-3.597-2.08a.333.333 0 1 0-.333.577l3.597 2.08a.333.333 0 0 0 .333-.577Zm4.994 1.298-1.372.793-1.373-.793a.333.333 0 1 0-.333.577l1.372.793v1.697a.333.333 0 0 0 .667 0v-1.697l1.373-.793a.333.333 0 0 0-.334-.577Zm5.846-3.377-3.598 2.078a.334.334 0 0 0 .334.577l3.597-2.078a.333.333 0 0 0-.333-.577Zm6.3-3.256a.333.333 0 0 1-.121.455l-1.983 1.146v12.613a.333.333 0 0 1-.167.289l-11.08 6.403a.331.331 0 0 1-.334 0L7.104 27.692a.333.333 0 0 1-.167-.29V14.79l-1.983-1.145a.333.333 0 0 1 .334-.577l1.983 1.145 10.747-6.21V6.416a.333.333 0 0 1 .667 0v1.586l10.748 6.21 1.983-1.145a.333.333 0 0 1 .455.122Zm-2.77 1.986-.949.548a.333.333 0 1 1-.333-.577l.949-.549L18.352 8.58 7.937 14.597l.948.548a.333.333 0 0 1-.333.577l-.948-.547V27.21l10.414 6.017v-1.45a.333.333 0 0 1 .667 0v1.45l10.414-6.017V15.175ZM18.017 2.861v1.778a.333.333 0 0 0 .667 0V2.86a.333.333 0 0 0-.667 0Zm.334 34.583a.334.334 0 0 0 .333-.333v-1.778a.333.333 0 0 0-.667 0v1.778c0 .184.15.334.334.334Zm0-13.11a.333.333 0 0 0-.334.333v1.777a.333.333 0 0 0 .667 0v-1.777a.333.333 0 0 0-.333-.334Zm0 3.555a.333.333 0 0 0-.334.333V30a.333.333 0 0 0 .667 0v-1.778a.333.333 0 0 0-.333-.333Z"/><path stroke="#241C18" stroke-width=".9" d="M35.703 29.056v1.777a.33.33 0 0 1-.167.289l-1.539.89a.333.333 0 0 1-.333-.577l1.372-.794v-1.585a.333.333 0 0 1 .667 0Zm-.333-7.09a.333.333 0 0 0-.334.334v4.157a.333.333 0 0 0 .667 0V22.3a.333.333 0 0 0-.333-.334Zm0-6.756a.333.333 0 0 0-.334.333v4.158a.333.333 0 0 0 .667 0v-4.158a.333.333 0 0 0-.333-.333Zm.329-4.06a.325.325 0 0 0-.04-.149L35.658 11a.327.327 0 0 0-.11-.11c-.005-.003-.007-.009-.012-.012l-1.539-.89a.333.333 0 1 0-.333.578l1.04.6-1.04.601a.333.333 0 0 0 .333.578l1.04-.6v1.2a.333.333 0 0 0 .666 0v-1.778c0-.006-.004-.01-.004-.016ZM21.973 3.81l3.597 2.08a.331.331 0 0 0 .455-.122.333.333 0 0 0-.122-.456l-3.597-2.079a.333.333 0 1 0-.334.578Zm5.845 3.379 3.597 2.078a.333.333 0 1 0 .333-.577l-3.597-2.08a.333.333 0 1 0-.333.578ZM16.813 2.556a.33.33 0 0 0 .166-.045l1.373-.792 1.372.792a.333.333 0 1 0 .334-.577l-1.54-.89a.332.332 0 0 0-.333 0l-1.54.89a.334.334 0 0 0 .168.622ZM5.12 9.311a.331.331 0 0 0 .166-.044l3.598-2.079a.333.333 0 0 0-.333-.577L4.954 8.689a.333.333 0 0 0 .167.622Zm5.846-3.377a.33.33 0 0 0 .166-.045l3.597-2.078a.333.333 0 0 0-.333-.578L10.8 5.312a.333.333 0 0 0 .167.622ZM3.161 10.11a.333.333 0 0 0-.455-.122l-1.54.89c-.004.002-.006.008-.01.01a.326.326 0 0 0-.11.11L1.044 11a.326.326 0 0 0-.04.15c0 .005-.004.01-.004.016v1.778a.333.333 0 0 0 .667 0v-1.2l1.039.6a.333.333 0 1 0 .333-.577l-1.04-.601 1.04-.6a.333.333 0 0 0 .122-.456ZM1.333 26.79c.184 0 .334-.15.334-.334V22.3a.333.333 0 0 0-.667 0v4.158c0 .184.15.333.333.333Zm0-6.757c.184 0 .334-.15.334-.333v-4.158a.333.333 0 0 0-.667 0V19.7c0 .184.15.333.333.333Zm1.706 11.4-1.372-.793v-1.585a.333.333 0 0 0-.667 0v1.777c0 .12.063.23.167.289l1.539.89a.333.333 0 1 0 .333-.577ZM14.73 38.19l-3.597-2.08a.333.333 0 1 0-.333.578l3.597 2.079a.333.333 0 0 0 .333-.577Zm-5.845-3.378-3.597-2.079a.333.333 0 1 0-.334.577l3.598 2.079a.333.333 0 1 0 .333-.577Zm10.84 4.677-1.04.6v-1.2a.333.333 0 0 0-.667 0v1.2l-1.039-.6a.333.333 0 1 0-.333.577l1.539.89c.005.002.01.001.016.003a.32.32 0 0 0 .15.041.324.324 0 0 0 .151-.04c.005-.003.011-.002.016-.005l1.54-.889a.333.333 0 0 0-.334-.577Zm5.845-3.378-3.598 2.079a.334.334 0 0 0 .334.577l3.597-2.079a.333.333 0 0 0-.333-.577Zm5.846-3.377-3.598 2.078a.333.333 0 0 0 .333.577l3.598-2.078a.333.333 0 0 0-.333-.577ZM14.73 18.524l-3.597-2.08a.333.333 0 1 0-.333.577l3.597 2.08a.333.333 0 0 0 .333-.577Zm4.994 1.298-1.372.793-1.373-.793a.333.333 0 1 0-.333.577l1.372.793v1.697a.333.333 0 0 0 .667 0v-1.697l1.373-.793a.333.333 0 0 0-.334-.577Zm5.846-3.377-3.598 2.078a.334.334 0 0 0 .334.577l3.597-2.078a.333.333 0 0 0-.333-.577Zm6.3-3.256a.333.333 0 0 1-.121.455l-1.983 1.146v12.613a.333.333 0 0 1-.167.289l-11.08 6.403a.331.331 0 0 1-.334 0L7.104 27.692a.333.333 0 0 1-.167-.29V14.79l-1.983-1.145a.333.333 0 0 1 .334-.577l1.983 1.145 10.747-6.21V6.416a.333.333 0 0 1 .667 0v1.586l10.748 6.21 1.983-1.145a.333.333 0 0 1 .455.122Zm-2.77 1.986-.949.548a.333.333 0 1 1-.333-.577l.949-.549L18.352 8.58 7.937 14.597l.948.548a.333.333 0 0 1-.333.577l-.948-.547V27.21l10.414 6.017v-1.45a.333.333 0 0 1 .667 0v1.45l10.414-6.017V15.175ZM18.017 2.861v1.778a.333.333 0 0 0 .667 0V2.86a.333.333 0 0 0-.667 0Zm.334 34.583a.334.334 0 0 0 .333-.333v-1.778a.333.333 0 0 0-.667 0v1.778c0 .184.15.334.334.334Zm0-13.11a.333.333 0 0 0-.334.333v1.777a.333.333 0 0 0 .667 0v-1.777a.333.333 0 0 0-.333-.334Zm0 3.555a.333.333 0 0 0-.334.333V30a.333.333 0 0 0 .667 0v-1.778a.333.333 0 0 0-.333-.333Z" mask="url(#a)"/></svg>