<svg overflow="visible" width="100%" height="100%" viewBox="0 0 20 20" fill="none" xmlns="http://www.w3.org/2000/svg"> <path stroke-linejoin="miter" fill="var(--token-b7177e78-718c-477e-afa5-f5fde93e7b19, rgb(255, 255, 255))" d="M14.167 1.66699C16.4682 1.66699 18.334 3.5328 18.334 5.83398V14.167C18.334 16.4682 16.4682 18.334 14.167 18.334H5.83398C3.5328 18.334 1.66699 16.4682 1.66699 14.167V5.83398C1.66699 3.5328 3.5328 1.66699 5.83398 1.66699H14.167ZM10.6719 5.67773C9.77049 5.54412 8.84989 5.69856 8.04102 6.11816C7.23215 6.53787 6.57582 7.2017 6.16602 8.01562C5.75628 8.82967 5.6131 9.75257 5.75781 10.6523C5.90262 11.5522 6.32817 12.3838 6.97266 13.0283C7.61701 13.6725 8.44807 14.0973 9.34766 14.2422C10.2473 14.3869 11.1704 14.2446 11.9844 13.835C12.7984 13.4252 13.4631 12.7689 13.8828 11.96C14.3025 11.151 14.4569 10.2297 14.3232 9.32812C14.1868 8.40875 13.7577 7.55767 13.1006 6.90039C12.4432 6.24305 11.5914 5.81416 10.6719 5.67773ZM8.96191 7.89355C9.39749 7.66761 9.89352 7.58427 10.3789 7.65625C10.8739 7.72976 11.3327 7.96058 11.6865 8.31445C12.0403 8.6684 12.2713 9.12701 12.3447 9.62207C12.4167 10.1074 12.3334 10.6035 12.1074 11.0391C11.8814 11.4745 11.5241 11.8282 11.0859 12.0488C10.6477 12.2694 10.1504 12.3454 9.66602 12.2676C9.18161 12.1896 8.73371 11.9611 8.38672 11.6143C8.0397 11.2672 7.8104 10.8195 7.73242 10.335C7.65445 9.85041 7.7315 9.35343 7.95215 8.91504C8.17279 8.47677 8.52639 8.11957 8.96191 7.89355ZM14.584 4.41699C14.0317 4.41699 13.584 4.86471 13.584 5.41699C13.584 5.96928 14.0317 6.41699 14.584 6.41699H14.5918C15.1439 6.41682 15.5918 5.96917 15.5918 5.41699C15.5918 4.86482 15.1439 4.41717 14.5918 4.41699H14.584Z"></path> </svg>