<svg style="width:100%;height:100%;" preserveAspectRatio="none" width="100%" height="100%" xmlns="http://www.w3.org/2000/svg"><defs><svg viewBox="0 0 70.197 50" overflow="visible" id="svg2006897950_810"><path d="M 30.296 35.714 C 30.296 43.842 24.63 50 16.01 50 C 7.39 50 0 43.103 0 30.788 C 0 15.518 11.576 2.463 26.601 0 L 26.601 9.113 C 17.981 10.837 11.576 16.995 11.576 24.138 C 13.054 23.153 15.025 22.414 18.226 22.414 C 24.63 22.414 30.296 27.094 30.296 35.714 Z M 70.197 35.714 C 70.197 43.842 64.286 50 55.665 50 C 47.291 50 39.655 43.103 39.655 30.788 C 39.655 15.518 51.232 2.463 66.502 0 L 66.502 9.113 C 57.882 10.837 51.478 16.995 51.478 23.892 C 52.956 22.906 55.172 22.414 58.128 22.414 C 64.532 22.414 70.197 27.094 70.197 35.714 Z" fill="var(--token-ea36c376-ae10-432e-a6ff-043dcd2e3b0e, rgb(200, 194, 184)) /* {&quot;name&quot;:&quot;Grey 500&quot;} */"></path></svg></defs><use href="#svg2006897950_810"></use></svg>