<svg style="width:100%;height:100%;" xmlns="http://www.w3.org/2000/svg"><defs><svg viewBox="0 0 60 60" id="svg11763177095"><path d="M 42.5 16.775 C 42.548 16.775 42.597 16.779 42.645 16.789 C 42.658 16.792 42.671 16.798 42.685 16.802 C 42.715 16.81 42.746 16.818 42.776 16.83 C 42.795 16.838 42.813 16.849 42.831 16.858 C 42.896 16.892 42.958 16.933 43.013 16.987 C 43.067 17.041 43.107 17.104 43.141 17.168 C 43.15 17.186 43.161 17.204 43.169 17.223 C 43.206 17.311 43.225 17.405 43.225 17.5 L 43.225 42.5 C 43.225 42.9 42.9 43.225 42.5 43.225 C 42.1 43.225 41.775 42.9 41.775 42.5 L 41.775 19.25 L 18.013 43.013 C 17.73 43.296 17.27 43.296 16.987 43.013 C 16.704 42.73 16.704 42.27 16.987 41.987 L 40.75 18.225 L 17.5 18.225 C 17.1 18.225 16.775 17.9 16.775 17.5 C 16.775 17.1 17.1 16.775 17.5 16.775 Z" fill="var(--token-4d729ee2-0aba-46c0-a0fd-e8e407f97d86, rgb(35, 27, 24)) /* {&quot;name&quot;:&quot;Black 900&quot;} */"></path></svg></defs><use href="#svg11763177095"></use></svg>