<svg xmlns="http://www.w3.org/2000/svg" width="31" height="26" fill="none"><path fill="#241C18" fill-rule="evenodd" d="M23.984 20.092a.37.37 0 0 0-.367-.371h-13.52a.37.37 0 0 0-.367.37v5.265a.37.37 0 0 0 .368.371h13.519a.37.37 0 0 0 .367-.37v-5.265Zm6.171 0a.37.37 0 0 0-.367-.371H24.79a.37.37 0 0 0-.367.37v5.265a.37.37 0 0 0 .367.371h4.997a.37.37 0 0 0 .367-.37v-5.265Zm-20.865 0a.37.37 0 0 0-.367-.371H.915a.37.37 0 0 0-.368.37v5.265a.37.37 0 0 0 .368.371h8.008a.37.37 0 0 0 .367-.37v-5.265Zm13.96.37v4.523H10.464v-4.523H23.25Zm6.17 0v4.523h-4.26v-4.523h4.261Zm-20.864 0v4.523H1.282v-4.523h7.274Zm21.6-6.894a.37.37 0 0 0-.368-.371h-14.18a.37.37 0 0 0-.367.37v5.265a.37.37 0 0 0 .367.371h14.18a.37.37 0 0 0 .367-.37v-5.265Zm-15.356 0a.37.37 0 0 0-.368-.371H.915a.37.37 0 0 0-.368.37v5.265a.37.37 0 0 0 .368.371h13.517a.37.37 0 0 0 .368-.37v-5.265Zm-.735.37v4.523H1.282v-4.523h12.783Zm15.355 0v4.523H15.976v-4.523H29.42ZM6.277 6.895a.369.369 0 0 0-.366-.37H.914a.37.37 0 0 0-.367.37v5.263c0 .206.165.371.367.371h4.997a.368.368 0 0 0 .366-.37V6.894Zm23.437 5.634h.093a.37.37 0 0 0 .348-.37v-.667a.369.369 0 0 0-.368-.37.369.369 0 0 0-.367.37v.445a.369.369 0 0 0 .294.592Zm-8.082-5.634a.37.37 0 0 0-.367-.37H7.085a.37.37 0 0 0-.367.37v5.263c0 .206.165.371.367.371h14.18a.369.369 0 0 0 .367-.37V6.894Zm1.47 5.634h.735a.368.368 0 0 0 .366-.37.367.367 0 0 0-.366-.37h-.735a.368.368 0 0 0-.367.37c0 .205.165.37.367.37Zm2.203 0h.735a.369.369 0 0 0 .368-.37.368.368 0 0 0-.368-.37h-.735a.368.368 0 0 0-.367.37c0 .205.165.37.367.37Zm2.205 0h.734a.368.368 0 0 0 .367-.37.368.368 0 0 0-.367-.37h-.734a.368.368 0 0 0-.367.37c0 .205.163.37.367.37ZM5.543 7.266v4.523H1.282V7.266h4.261Zm15.354 0v4.523H7.453V7.266h13.444Zm1.176 3.336v.742c0 .204.165.37.367.37a.37.37 0 0 0 .368-.37v-.742a.37.37 0 0 0-.368-.37.37.37 0 0 0-.367.37Zm8.082-.593v-.742a.37.37 0 0 0-.368-.37.37.37 0 0 0-.367.37v.742c0 .204.165.37.367.37a.37.37 0 0 0 .368-.37Zm-8.082-1.63v.74c0 .206.165.37.367.37a.369.369 0 0 0 .368-.37v-.74a.369.369 0 0 0-.368-.371.369.369 0 0 0-.367.37Zm7.347-1.113v.52c0 .203.165.37.367.37a.37.37 0 0 0 .368-.37v-.743a.4.4 0 0 0-.008-.074.37.37 0 0 0-.36-.445h-.735a.37.37 0 0 0-.367.371c0 .204.165.37.367.37h.368Zm-4.041-.742h-.735a.37.37 0 0 0-.367.371c0 .204.165.37.367.37h.735a.37.37 0 0 0 .367-.37.37.37 0 0 0-.367-.37Zm2.205 0h-.735a.37.37 0 0 0-.367.371c0 .204.165.37.367.37h.735a.369.369 0 0 0 .366-.37.369.369 0 0 0-.366-.37Zm-3.6-.519h.734a.37.37 0 0 0 .367-.37.37.37 0 0 0-.367-.372h-.734a.369.369 0 0 0-.367.371c0 .204.163.371.367.371Zm2.203 0h.735a.37.37 0 0 0 .368-.37.37.37 0 0 0-.367-.372h-.735a.37.37 0 0 0-.368.371.37.37 0 0 0 .367.371Zm-8.816 0h.735a.37.37 0 0 0 .367-.37.37.37 0 0 0-.367-.372h-.735a.37.37 0 0 0 0 .742Zm2.205 0h.735a.369.369 0 0 0 .366-.37.369.369 0 0 0-.366-.372h-.735a.37.37 0 0 0 0 .742Zm2.203 0h.735a.37.37 0 0 0 .368-.37.37.37 0 0 0-.368-.372h-.735a.37.37 0 0 0-.367.371.37.37 0 0 0 .367.371Zm6.612 0h.735a.37.37 0 0 0 .368-.37.37.37 0 0 0-.368-.372h-.735a.37.37 0 0 0-.367.371.37.37 0 0 0 .367.371ZM15.461.371a.369.369 0 0 0-.367-.37H.914a.369.369 0 0 0-.367.37v5.263c0 .206.165.371.367.371h14.18a.369.369 0 0 0 .367-.37V.37Zm.441 4.152v.74a.368.368 0 1 0 .735 0v-.74a.368.368 0 1 0-.735 0ZM14.726.742v4.521H1.282V.742h13.444Zm15.43 4.078v-.742a.37.37 0 0 0-.368-.37.37.37 0 0 0-.368.37v.742a.368.368 0 1 0 .735 0ZM15.901 2.298v.742c0 .204.164.37.368.37a.37.37 0 0 0 .367-.37v-.742a.37.37 0 0 0-.367-.371.369.369 0 0 0-.368.37Zm14.253.297v-.742a.37.37 0 0 0-.367-.371.37.37 0 0 0-.368.37v.743c0 .204.165.37.368.37a.37.37 0 0 0 .367-.37ZM16.637.735A.371.371 0 0 0 16.564 0h-.294a.368.368 0 0 0-.368.37v.446c0 .204.164.37.368.37a.37.37 0 0 0 .367-.37V.734Zm13.15.007a.37.37 0 0 0 .365-.417.37.37 0 0 0-.364-.325h-.735a.37.37 0 0 0-.368.37.37.37 0 0 0 .368.372h.735ZM27.585 0h-.735a.37.37 0 0 0-.367.37.37.37 0 0 0 .367.372h.735A.369.369 0 0 0 27.95.37a.369.369 0 0 0-.366-.37Zm-6.613 0h-.734a.369.369 0 0 0-.367.37c0 .205.163.372.367.372h.734a.369.369 0 0 0 .367-.371.369.369 0 0 0-.367-.371Zm4.408 0h-.735a.37.37 0 0 0-.368.37.37.37 0 0 0 .368.372h.735a.37.37 0 0 0 .367-.371A.37.37 0 0 0 25.38 0Zm-2.204 0h-.735a.37.37 0 0 0-.367.37.37.37 0 0 0 .367.372h.735a.37.37 0 0 0 .368-.371.37.37 0 0 0-.368-.371Zm-4.408 0h-.735a.37.37 0 0 0-.367.37.37.37 0 0 0 .367.372h.735a.37.37 0 0 0 .368-.371.37.37 0 0 0-.368-.371Z" clip-rule="evenodd"/></svg>