<svg xmlns="http://www.w3.org/2000/svg" width="70" height="70" fill="none"><circle cx="35" cy="35" r="35" fill="#241C18" transform="rotate(-180 35 35)"/><g clip-path="url(#a)"><path fill="#fff" d="M36.884 39.666a.695.695 0 0 0 .873.09l.11-.09 4.374-4.374a.69.69 0 0 0 .164-.274.687.687 0 0 0 .04-.218.689.689 0 0 0-.095-.341.69.69 0 0 0-.109-.15l-4.375-4.375a.695.695 0 0 0-.982.982l2.004 2.004a.694.694 0 0 1-.491 1.186H27.375a.694.694 0 0 0 0 1.389h11.022c.618 0 .928.748.49 1.185l-2.003 2.004-.09.11a.695.695 0 0 0 .09.873Z"/></g><defs><clipPath id="a"><path fill="#fff" d="M26.125 39.8h18.75v-10h-18.75z"/></clipPath></defs></svg>