<svg xmlns="http://www.w3.org/2000/svg" width="33" height="34" fill="none"><mask id="a" width="34" height="34" x="-.648" y="0" fill="#000" maskUnits="userSpaceOnUse"><path fill="#fff" d="M-.648 0h34v34h-34z"/><path d="M32.018 1H11.132a.333.333 0 0 0-.334.333v4.824H5.972a.333.333 0 0 0-.334.333v4.953H.685a.333.333 0 0 0-.333.334v20.89A.333.333 0 0 0 .685 33h20.89a.333.333 0 0 0 .333-.333v-4.954h4.954a.333.333 0 0 0 .333-.333v-4.827h4.823a.333.333 0 0 0 .334-.333V1.333A.333.333 0 0 0 32.018 1ZM21.242 32.333H1.018V12.11h20.224v20.223Zm5.286-5.286h-4.62v-15.27a.333.333 0 0 0-.333-.334H6.305v-4.62h20.223v20.224Zm5.157-5.16h-4.49V6.49a.333.333 0 0 0-.333-.333H11.465v-4.49h20.22v20.22Zm-25.38-6.554a.333.333 0 0 1-.333.334H3.765a.333.333 0 0 1 0-.667h2.207a.333.333 0 0 1 .333.333Zm6.263 0a.333.333 0 0 1-.333.334h-2.217a.333.333 0 0 1 0-.667h2.207a.335.335 0 0 1 .343.333Zm6.26 0a.333.333 0 0 1-.333.334h-2.207a.333.333 0 0 1 0-.667h2.207a.333.333 0 0 1 .333.333Zm-9.393 3.364a.333.333 0 0 1-.333.333H6.895a.333.333 0 1 1 0-.667h2.207a.333.333 0 0 1 .333.334Zm6.263 0a.333.333 0 0 1-.333.333h-2.207a.333.333 0 1 1 0-.667h2.194a.333.333 0 0 1 .333.334h.013Zm-9.393 3.526a.333.333 0 0 1-.333.334H3.765a.333.333 0 0 1 0-.667h2.207a.333.333 0 0 1 .333.333Zm6.263 0a.333.333 0 0 1-.333.334h-2.217a.333.333 0 0 1 0-.667h2.207a.335.335 0 0 1 .343.333Zm6.26 0a.333.333 0 0 1-.333.334h-2.207a.333.333 0 0 1 0-.667h2.207a.333.333 0 0 1 .333.333Zm-9.393 3.374a.333.333 0 0 1-.333.333H6.895a.333.333 0 1 1 0-.667h2.207a.333.333 0 0 1 .333.334Zm6.263 0a.333.333 0 0 1-.333.333h-2.207a.333.333 0 1 1 0-.667h2.194a.333.333 0 0 1 .333.334h.013ZM6.305 29.12a.333.333 0 0 1-.333.333H3.765a.333.333 0 1 1 0-.666h2.207a.333.333 0 0 1 .333.333Zm6.263 0a.333.333 0 0 1-.333.333h-2.217a.333.333 0 1 1 0-.666h2.207a.333.333 0 0 1 .343.333Zm6.26 0a.333.333 0 0 1-.333.333h-2.207a.333.333 0 1 1 0-.666h2.207a.333.333 0 0 1 .333.333Z"/></mask><path fill="#241C18" d="M32.018 1H11.132a.333.333 0 0 0-.334.333v4.824H5.972a.333.333 0 0 0-.334.333v4.953H.685a.333.333 0 0 0-.333.334v20.89A.333.333 0 0 0 .685 33h20.89a.333.333 0 0 0 .333-.333v-4.954h4.954a.333.333 0 0 0 .333-.333v-4.827h4.823a.333.333 0 0 0 .334-.333V1.333A.333.333 0 0 0 32.018 1ZM21.242 32.333H1.018V12.11h20.224v20.223Zm5.286-5.286h-4.62v-15.27a.333.333 0 0 0-.333-.334H6.305v-4.62h20.223v20.224Zm5.157-5.16h-4.49V6.49a.333.333 0 0 0-.333-.333H11.465v-4.49h20.22v20.22Zm-25.38-6.554a.333.333 0 0 1-.333.334H3.765a.333.333 0 0 1 0-.667h2.207a.333.333 0 0 1 .333.333Zm6.263 0a.333.333 0 0 1-.333.334h-2.217a.333.333 0 0 1 0-.667h2.207a.335.335 0 0 1 .343.333Zm6.26 0a.333.333 0 0 1-.333.334h-2.207a.333.333 0 0 1 0-.667h2.207a.333.333 0 0 1 .333.333Zm-9.393 3.364a.333.333 0 0 1-.333.333H6.895a.333.333 0 1 1 0-.667h2.207a.333.333 0 0 1 .333.334Zm6.263 0a.333.333 0 0 1-.333.333h-2.207a.333.333 0 1 1 0-.667h2.194a.333.333 0 0 1 .333.334h.013Zm-9.393 3.526a.333.333 0 0 1-.333.334H3.765a.333.333 0 0 1 0-.667h2.207a.333.333 0 0 1 .333.333Zm6.263 0a.333.333 0 0 1-.333.334h-2.217a.333.333 0 0 1 0-.667h2.207a.335.335 0 0 1 .343.333Zm6.26 0a.333.333 0 0 1-.333.334h-2.207a.333.333 0 0 1 0-.667h2.207a.333.333 0 0 1 .333.333Zm-9.393 3.374a.333.333 0 0 1-.333.333H6.895a.333.333 0 1 1 0-.667h2.207a.333.333 0 0 1 .333.334Zm6.263 0a.333.333 0 0 1-.333.333h-2.207a.333.333 0 1 1 0-.667h2.194a.333.333 0 0 1 .333.334h.013ZM6.305 29.12a.333.333 0 0 1-.333.333H3.765a.333.333 0 1 1 0-.666h2.207a.333.333 0 0 1 .333.333Zm6.263 0a.333.333 0 0 1-.333.333h-2.217a.333.333 0 1 1 0-.666h2.207a.333.333 0 0 1 .343.333Zm6.26 0a.333.333 0 0 1-.333.333h-2.207a.333.333 0 1 1 0-.666h2.207a.333.333 0 0 1 .333.333Z"/><path stroke="#241C18" stroke-width=".68" d="M32.018 1H11.132a.333.333 0 0 0-.334.333v4.824H5.972a.333.333 0 0 0-.334.333v4.953H.685a.333.333 0 0 0-.333.334v20.89A.333.333 0 0 0 .685 33h20.89a.333.333 0 0 0 .333-.333v-4.954h4.954a.333.333 0 0 0 .333-.333v-4.827h4.823a.333.333 0 0 0 .334-.333V1.333A.333.333 0 0 0 32.018 1ZM21.242 32.333H1.018V12.11h20.224v20.223Zm5.286-5.286h-4.62v-15.27a.333.333 0 0 0-.333-.334H6.305v-4.62h20.223v20.224Zm5.157-5.16h-4.49V6.49a.333.333 0 0 0-.333-.333H11.465v-4.49h20.22v20.22Zm-25.38-6.554a.333.333 0 0 1-.333.334H3.765a.333.333 0 0 1 0-.667h2.207a.333.333 0 0 1 .333.333Zm6.263 0a.333.333 0 0 1-.333.334h-2.217a.333.333 0 0 1 0-.667h2.207a.335.335 0 0 1 .343.333Zm6.26 0a.333.333 0 0 1-.333.334h-2.207a.333.333 0 0 1 0-.667h2.207a.333.333 0 0 1 .333.333Zm-9.393 3.364a.333.333 0 0 1-.333.333H6.895a.333.333 0 1 1 0-.667h2.207a.333.333 0 0 1 .333.334Zm6.263 0a.333.333 0 0 1-.333.333h-2.207a.333.333 0 1 1 0-.667h2.194a.333.333 0 0 1 .333.334h.013Zm-9.393 3.526a.333.333 0 0 1-.333.334H3.765a.333.333 0 0 1 0-.667h2.207a.333.333 0 0 1 .333.333Zm6.263 0a.333.333 0 0 1-.333.334h-2.217a.333.333 0 0 1 0-.667h2.207a.335.335 0 0 1 .343.333Zm6.26 0a.333.333 0 0 1-.333.334h-2.207a.333.333 0 0 1 0-.667h2.207a.333.333 0 0 1 .333.333Zm-9.393 3.374a.333.333 0 0 1-.333.333H6.895a.333.333 0 1 1 0-.667h2.207a.333.333 0 0 1 .333.334Zm6.263 0a.333.333 0 0 1-.333.333h-2.207a.333.333 0 1 1 0-.667h2.194a.333.333 0 0 1 .333.334h.013ZM6.305 29.12a.333.333 0 0 1-.333.333H3.765a.333.333 0 1 1 0-.666h2.207a.333.333 0 0 1 .333.333Zm6.263 0a.333.333 0 0 1-.333.333h-2.217a.333.333 0 1 1 0-.666h2.207a.333.333 0 0 1 .343.333Zm6.26 0a.333.333 0 0 1-.333.333h-2.207a.333.333 0 1 1 0-.666h2.207a.333.333 0 0 1 .333.333Z" mask="url(#a)"/></svg>