<svg xmlns="http://www.w3.org/2000/svg" width="70" height="70" fill="none"><circle cx="35" cy="35" r="35" fill="#241C18"/><g clip-path="url(#a)"><path fill="#fff" d="M33.116 30.334a.695.695 0 0 0-.873-.09l-.11.09-4.374 4.375a.69.69 0 0 0-.164.273.687.687 0 0 0-.04.218c0 .125.037.24.095.341a.69.69 0 0 0 .109.15l4.375 4.375a.695.695 0 0 0 .982-.983l-2.004-2.003a.694.694 0 0 1 .491-1.186h11.022a.694.694 0 0 0 0-1.389H31.603a.694.694 0 0 1-.49-1.185l2.003-2.004.09-.11a.695.695 0 0 0-.09-.872Z"/></g><defs><clipPath id="a"><path fill="#fff" d="M43.875 30.2h-18.75v10h18.75z"/></clipPath></defs></svg>